<?xml version="1.0" encoding="UTF-8" standalone="no"?>
<!DOCTYPE svg PUBLIC "-//W3C//DTD SVG 1.1//EN" "http://www.w3.org/Graphics/SVG/1.1/DTD/svg11.dtd">
<svg width="100%" height="100%" viewBox="0 0 1800 1800" version="1.1" xmlns="http://www.w3.org/2000/svg" xmlns:xlink="http://www.w3.org/1999/xlink" xml:space="preserve" xmlns:serif="http://www.serif.com/" style="fill-rule:evenodd;clip-rule:evenodd;stroke-linejoin:round;stroke-miterlimit:2;">
    <rect id="xyz2" x="0" y="0" width="1800" height="1800" style="fill:none;"/>
    <g id="xyz21" serif:id="xyz2">
        <g transform="matrix(0.717082,0,0,0.717082,276.677,289.184)">
            <g transform="matrix(1.28507,0,0,0.107504,78.3917,983.333)">
                <rect x="366.213" y="811.756" width="247.147" height="372.078" style="fill:rgb(128,0,255);"/>
            </g>
            <g transform="matrix(53.9615,0,0,53.9615,19105.8,12784.2)">
                <rect x="-342.419" y="-229.94" width="2.943" height="11.323" style="fill:rgb(128,0,255);fill-rule:nonzero;"/>
            </g>
            <path d="M1092.92,1203.48L1189.5,1304.58L1043.64,1327.27L999.194,1281.54C1045.09,1279.62 1083.06,1246.87 1092.92,1203.48ZM908.188,1130.48C899.469,1145.36 894.471,1162.68 894.471,1181.15C894.471,1227.31 925.665,1266.24 968.11,1278C950.182,1284.97 931.465,1290.73 911.958,1295.26C885.217,1301.47 856.99,1304.58 827.278,1304.58C777.577,1304.58 732.063,1296.34 690.736,1279.86C675.875,1273.94 661.765,1267.19 648.402,1259.62L648.402,1150.6L824.852,1150.6C825.658,1150.61 826.467,1150.62 827.278,1150.62C841.323,1150.62 855.369,1149 869.415,1145.75C883.082,1142.27 895.992,1137.14 908.188,1130.48ZM994.943,1100.68C1039.36,1100.68 1075.41,1136.74 1075.41,1181.15C1075.41,1225.57 1039.36,1261.63 994.943,1261.63C950.529,1261.63 914.471,1225.57 914.471,1181.15C914.471,1136.74 950.529,1100.68 994.943,1100.68ZM962.347,1086.1C965.186,1082.86 967.972,1079.52 970.707,1076.07C990.155,1049.05 999.879,1017.72 999.879,982.066C999.879,957.756 995.287,935.336 986.103,914.808C976.919,894.279 964.359,876.452 948.423,861.326C932.486,846.2 914.118,834.45 893.32,826.076C872.521,817.703 850.507,813.516 827.278,813.516L827.2,813.516L827.2,659.553L827.278,659.552C876.438,659.552 921.817,667.791 963.414,684.268C1005.01,700.744 1040.8,723.569 1070.78,752.741C1100.77,781.913 1124.13,816.082 1140.88,855.248C1157.62,894.415 1166,936.687 1166,982.066C1166,1024.2 1159.11,1063.37 1145.33,1099.56C1133.3,1131.17 1116.64,1159.69 1095.34,1185.12C1095.39,1183.81 1095.41,1182.49 1095.41,1181.15C1095.41,1125.7 1050.39,1080.68 994.943,1080.68C983.536,1080.68 972.571,1082.59 962.347,1086.1Z" style="fill:rgb(128,0,255);fill-rule:nonzero;"/>
        </g>
    </g>
</svg>
