<?xml version="1.0" encoding="UTF-8" standalone="no"?>
<!DOCTYPE svg PUBLIC "-//W3C//DTD SVG 1.1//EN" "http://www.w3.org/Graphics/SVG/1.1/DTD/svg11.dtd">
<svg width="100%" height="100%" viewBox="0 0 1024 1024" version="1.1" xmlns="http://www.w3.org/2000/svg" xmlns:xlink="http://www.w3.org/1999/xlink" xml:space="preserve" xmlns:serif="http://www.serif.com/" style="fill-rule:evenodd;clip-rule:evenodd;stroke-linejoin:round;stroke-miterlimit:2;">
    <g transform="matrix(1,0,0,1,-7644,0)">
        <g id="android-chrome-512x512" transform="matrix(0.568889,0,0,0.568889,7644,0)">
            <rect x="0" y="0" width="1800" height="1800" style="fill:none;"/>
            <clipPath id="_clip1">
                <rect x="0" y="0" width="1800" height="1800"/>
            </clipPath>
            <g clip-path="url(#_clip1)">
                <g id="Layer1" transform="matrix(4.6875,0,0,4.6875,-7.27596e-12,0)">
                    <g id="favicon--wiazewicz.svg" serif:id="favicon -wiazewicz.svg" transform="matrix(0.213333,0,0,0.213333,192,192)">
                        <g id="Layer11" serif:id="Layer1">
                            <g id="favicon--wiazewicz.svg1" serif:id="favicon -wiazewicz.svg" transform="matrix(1,0,0,1,-900,-900)">
                                <clipPath id="_clip2">
                                    <rect x="0" y="0" width="1800" height="1800"/>
                                </clipPath>
                                <g clip-path="url(#_clip2)">
                                    <g>
                                        <g id="Artboard3">
                                            <rect x="0" y="0" width="1800" height="1800" style="fill:none;"/>
                                            <g id="Layer12" serif:id="Layer1">
                                                <g transform="matrix(3.752,0,0,2.70187,-2458.62,-1020.24)">
                                                    <ellipse cx="895.157" cy="710.708" rx="239.872" ry="333.102"/>
                                                </g>
                                                <g transform="matrix(0.843901,0,0,0.843901,162.135,137.454)">
                                                    <g transform="matrix(1.76023,0,0,1.76023,-51.1938,1326.64)">
                                                        <path d="M343.83,-371.4L272.965,-526.936L253.331,-526.936L253.331,-530.004L321.129,-530.004L367.759,-426.006L391.687,-477.545L368.372,-530.004L438.931,-530.004L438.931,-526.936L418.991,-526.936L462.86,-426.006L509.49,-526.936L474.21,-526.936L474.21,-530.004L534.032,-530.004L534.032,-526.936L513.478,-526.936L441.385,-371.4L438.931,-371.4L393.528,-473.557L346.284,-371.4L343.83,-371.4Z" style="fill:white;fill-rule:nonzero;"/>
                                                    </g>
                                                    <g transform="matrix(1.76023,0,0,1.76023,-51.1938,1326.64)">
                                                        <path d="M592.013,-569.885C586.695,-564.567 580.151,-561.908 572.379,-561.908C564.607,-561.908 558.012,-564.618 552.592,-570.038C547.172,-575.458 544.462,-582.053 544.462,-589.825C544.462,-597.597 547.172,-604.141 552.592,-609.459C558.012,-614.776 564.607,-617.435 572.379,-617.435C580.151,-617.435 586.747,-614.725 592.166,-609.305C597.586,-603.886 600.296,-597.392 600.296,-589.825C600.296,-582.053 597.535,-575.407 592.013,-569.885ZM596.001,-537.059L596.001,-379.069L617.782,-379.069L617.782,-376.001L528.817,-376.001L528.817,-379.069L550.598,-379.069L550.598,-491.963L528.817,-506.995L528.817,-508.222L596.001,-537.059Z" style="fill:white;fill-rule:nonzero;"/>
                                                    </g>
                                                    <g transform="matrix(1.76023,0,0,1.76023,-51.1938,1326.64)">
                                                        <path d="M679.138,-372.013C666.048,-372.013 654.851,-376.001 645.546,-383.978C636.24,-391.954 631.587,-401.771 631.587,-413.428C631.587,-418.95 632.507,-423.705 634.348,-427.693C636.189,-431.681 639.205,-435.158 643.398,-438.124C647.591,-441.089 651.579,-443.492 655.362,-445.333C659.146,-447.174 664.463,-449.475 671.315,-452.236C678.166,-454.997 683.739,-457.502 688.034,-459.752C697.237,-464.455 705.009,-469.568 711.349,-475.09C717.894,-480.817 721.166,-488.18 721.166,-497.178C721.166,-506.995 718.916,-514.92 714.417,-520.954C709.918,-526.987 703.987,-530.004 696.624,-530.004C687.83,-530.004 681.132,-526.22 676.53,-518.653C671.928,-511.086 671.366,-497.996 674.843,-479.385C673.002,-476.727 670.139,-474.681 666.253,-473.25C662.367,-471.818 658.686,-471.102 655.209,-471.102C648.46,-471.102 642.785,-472.534 638.183,-475.397C633.581,-478.26 631.28,-482.146 631.28,-487.055C631.28,-496.054 639.666,-505.564 656.436,-515.585C664.003,-520.084 669.883,-523.459 674.076,-525.709C678.268,-527.958 684.353,-530.208 692.329,-532.458C700.305,-534.707 708.486,-535.832 716.871,-535.832C732.006,-535.832 743.97,-532.356 752.764,-525.402C761.558,-518.448 765.956,-505.666 765.956,-487.055L765.956,-379.069L787.737,-379.069L787.737,-376.001L723.927,-376.001L720.859,-404.838C718.201,-394.204 713.088,-386.074 705.52,-380.45C697.953,-374.825 689.159,-372.013 679.138,-372.013ZM701.226,-388.886C706.543,-388.886 710.991,-391.494 714.57,-396.709C718.149,-401.924 720.041,-408.929 720.246,-417.723L721.166,-480.612C719.325,-478.363 715.951,-475.193 711.042,-471.102C710.224,-470.489 708.077,-468.802 704.6,-466.041C701.123,-463.28 698.823,-461.388 697.698,-460.365C696.573,-459.343 694.681,-457.604 692.022,-455.15C689.364,-452.696 687.523,-450.651 686.5,-449.014C685.478,-447.378 684.199,-445.333 682.666,-442.879C681.132,-440.425 680.109,-437.97 679.598,-435.516C679.087,-433.062 678.831,-430.403 678.831,-427.54C678.831,-416.905 680.927,-407.804 685.12,-400.237C689.312,-392.67 694.681,-388.886 701.226,-388.886Z" style="fill:white;fill-rule:nonzero;"/>
                                                    </g>
                                                    <g transform="matrix(1.76023,0,0,1.76023,141.562,1751.39)">
                                                        <path d="M267.749,-376.001L369.599,-526.936L328.184,-526.936C324.708,-526.936 322.049,-525.606 320.208,-522.948L273.271,-457.911L271.431,-457.911L295.973,-546.876L297.814,-546.876L322.356,-530.004L422.672,-530.004L320.822,-379.069L361.623,-379.069C366.327,-379.069 370.417,-381.217 373.894,-385.511L422.365,-449.014L424.513,-449.014L407.947,-376.001L267.749,-376.001Z" style="fill:white;fill-rule:nonzero;"/>
                                                    </g>
                                                    <g transform="matrix(1.76023,0,0,1.76023,141.562,1751.39)">
                                                        <path d="M522.681,-372.013C499.775,-372.013 480.704,-379.325 465.467,-393.948C450.231,-408.571 442.612,-428.154 442.612,-452.696C442.612,-475.806 450.537,-495.287 466.388,-511.137C482.238,-526.987 500.593,-534.912 521.454,-534.912C531.885,-534.912 541.548,-533.532 550.445,-530.771C559.341,-528.01 567.777,-522.641 575.754,-514.665C583.73,-506.688 589.354,-496.565 592.626,-484.294L482.493,-484.294C482.289,-482.658 482.187,-480.101 482.187,-476.624C482.187,-455.15 487.504,-437.715 498.139,-424.319C508.774,-410.923 523.09,-404.225 541.088,-404.225C546.814,-404.225 552.336,-404.89 557.654,-406.219C562.971,-407.548 568.34,-409.798 573.76,-412.968C579.179,-416.138 583.934,-420.944 588.025,-427.387C592.115,-433.829 595.183,-441.549 597.228,-450.548L599.682,-450.548C597.024,-422.938 588.843,-402.947 575.14,-390.573C561.437,-378.2 543.951,-372.013 522.681,-372.013ZM518.693,-531.844C509.081,-531.844 501.053,-528.112 494.611,-520.647C488.169,-513.182 484.232,-502.189 482.8,-487.668L519.92,-487.668C529.328,-487.668 535.873,-488.998 539.554,-491.656C543.235,-494.315 545.076,-498.815 545.076,-505.155C545.076,-511.699 542.775,-517.784 538.173,-523.408C533.572,-529.032 527.078,-531.844 518.693,-531.844Z" style="fill:white;fill-rule:nonzero;"/>
                                                    </g>
                                                    <g transform="matrix(1.76023,0,0,1.76023,141.562,1751.39)">
                                                        <path d="M685.273,-371.4L614.408,-526.936L594.774,-526.936L594.774,-530.004L662.572,-530.004L709.202,-426.006L733.13,-477.545L709.815,-530.004L780.374,-530.004L780.374,-526.936L760.434,-526.936L804.303,-426.006L850.933,-526.936L815.654,-526.936L815.654,-530.004L875.475,-530.004L875.475,-526.936L854.921,-526.936L782.828,-371.4L780.374,-371.4L734.971,-473.557L687.727,-371.4L685.273,-371.4Z" style="fill:white;fill-rule:nonzero;"/>
                                                    </g>
                                                    <g transform="matrix(1.76023,0,0,1.76023,-51.1938,2176.13)">
                                                        <path d="M330.332,-569.885C325.014,-564.567 318.47,-561.908 310.698,-561.908C302.926,-561.908 296.331,-564.618 290.911,-570.038C285.491,-575.458 282.781,-582.053 282.781,-589.825C282.781,-597.597 285.491,-604.141 290.911,-609.459C296.331,-614.776 302.926,-617.435 310.698,-617.435C318.47,-617.435 325.066,-614.725 330.485,-609.305C335.905,-603.886 338.615,-597.392 338.615,-589.825C338.615,-582.053 335.854,-575.407 330.332,-569.885ZM334.32,-537.059L334.32,-379.069L356.101,-379.069L356.101,-376.001L267.136,-376.001L267.136,-379.069L288.917,-379.069L288.917,-491.963L267.136,-506.995L267.136,-508.222L334.32,-537.059Z" style="fill:white;fill-rule:nonzero;"/>
                                                    </g>
                                                    <g transform="matrix(1.76023,0,0,1.76023,-51.1938,2176.13)">
                                                        <path d="M446.907,-372.013C424.001,-372.013 405.237,-379.427 390.614,-394.255C375.991,-409.082 368.679,-428.665 368.679,-453.002C368.679,-477.545 377.218,-497.332 394.295,-512.364C411.372,-527.396 431.773,-534.912 455.497,-534.912C470.018,-534.912 482.647,-531.742 493.384,-525.402C504.121,-519.062 509.49,-510.881 509.49,-500.86C509.49,-493.293 506.064,-487.566 499.213,-483.68C492.361,-479.794 483.516,-478.67 472.677,-480.306C472.268,-497.076 469.251,-509.603 463.627,-517.886C458.002,-526.169 450.486,-530.31 441.078,-530.31C431.057,-530.31 423.081,-525.555 417.15,-516.045C411.219,-506.535 408.253,-493.906 408.253,-478.158C408.253,-457.093 413.417,-439.504 423.746,-425.393C434.074,-411.281 448.339,-404.225 466.541,-404.225C493.946,-404.225 511.126,-419.666 518.08,-450.548L520.841,-450.548C515.932,-398.192 491.288,-372.013 446.907,-372.013Z" style="fill:white;fill-rule:nonzero;"/>
                                                    </g>
                                                    <g transform="matrix(1.76023,0,0,1.76023,-51.1938,2176.13)">
                                                        <path d="M533.725,-376.001L635.575,-526.936L594.16,-526.936C590.684,-526.936 588.025,-525.606 586.184,-522.948L539.247,-457.911L537.407,-457.911L561.949,-546.876L563.789,-546.876L588.332,-530.004L688.648,-530.004L586.798,-379.069L627.599,-379.069C632.303,-379.069 636.393,-381.217 639.87,-385.511L688.341,-449.014L690.488,-449.014L673.922,-376.001L533.725,-376.001Z" style="fill:white;fill-rule:nonzero;"/>
                                                    </g>
                                                </g>
                                            </g>
                                        </g>
                                    </g>
                                </g>
                            </g>
                            <g id="favicon--wiazewicz.svg2" serif:id="favicon -wiazewicz.svg">
                            </g>
                        </g>
                    </g>
                </g>
            </g>
        </g>
    </g>
</svg>
